# xmcd
#
# Track frame offsets: 
#        150
#        39672
#        61635
#        86355
#        114654
#        137795
#        177380
#        211035
#        246907
#        272950
#
# Disc length: 3957 seconds
#
# Revision: 1
# Processed by: cddbd v1.4PL0 Copyright (c) Steve Scherf et al.
# Submitted via: ExactAudioCopy v0.95a3
#
DISCID=8a0f730a
DTITLE=Various Artist - Underground Symphony
DYEAR=1997
DGENRE=Club
TTITLE0=Front Desk - Flight 800
TTITLE1=Sie - Brand New Member
TTITLE2=Apparatus - Spiritual Hop
TTITLE3=Resonator - Ninebarblues
TTITLE4=N.u.i. - Reve
TTITLE5=Asana - Deva Bandha
TTITLE6=Sureshot - Underground Symphony
TTITLE7=Tundra - Skafter
TTITLE8=Five Star Galaxy - Zero Gravity
TTITLE9=Gregoire - Alice's Garden
EXTD=
EXTT0=
EXTT1=
EXTT2=
EXTT3=
EXTT4=
EXTT5=
EXTT6=
EXTT7=
EXTT8=
EXTT9=
PLAYORDER=
